# xmcd
#
# Track frame offsets:
#	150
#	17701
#	32565
#	48087
#	63512
#	82536
#	100960
#	114551
#	126964
#	143947
#	163676
#	178028
#
# Disc length: 2591 seconds
# Revision: 0
# Processed by: cddbd v1.5.2PL0 Copyright (c) Steve Scherf et al.
# Submitted via: dBpowerAMP V12.0
#
DISCID=960a1d0c
DTITLE=The Woodpickers - Down The Line
DYEAR=2011
DGENRE=Blues Roots
TTITLE0=Down The Line
TTITLE1=Gorgeous
TTITLE2=Love and Faith
TTITLE3=Yin and Yang
TTITLE4=Ladies On Main Street
TTITLE5=The Highway
TTITLE6=Photograph
TTITLE7=Paradise Road
TTITLE8=Cold Love
TTITLE9=Blacktown Moon
TTITLE10=The Devil and Jesus
TTITLE11=The Book Of Wonder
EXTD=
EXTT0=
EXTT1=
EXTT2=
EXTT3=
EXTT4=
EXTT5=
EXTT6=
EXTT7=
EXTT8=
EXTT9=
EXTT10=
EXTT11=
PLAYORDER=
